mastitorrents.com
  
http://mastitorrents.com/forums/index.php
  
http://thepiratebay.se/user/HDvideos/0/7

Ted (2012) BRRip 720p Dual Audio [Hindi-Eng]

Rip info

Format                                   : Matroska
Format version                           : Version 2
File size                                : 744 MiB
Duration                                 : 1h 46mn
Overall bit rate                         : 981 Kbps
Movie name                               : Ted.[2012].BRRip 720p Dual Audio [Hindi-Eng]

Video

Format                                   : AVC
Format/Info                              : Advanced Video Codec
Format profile                           : High@L3.1
Format settings, CABAC                   : Yes
Format settings, ReFrames                : 4 frames
Muxing mode                              : Header stripping
Codec ID                                 : V_MPEG4/ISO/AVC
Duration                                 : 1h 46mn
Bit rate                                 : 725 Kbps
Width                                    : 1 280 pixels
Height                                   : 688 pixels
Display aspect ratio                     : 1.860
Frame rate                               : 23.976 fps
Color space                              : YUV
Chroma subsampling                       : 4:2:0
Bit depth                                : 8 bits
Scan type                                : Progressive
Bits/(Pixel*Frame)                       : 0.034
Stream size                              : 535 MiB (72%)
Title                                    : K@rtik
Writing library                          : x264 core 129 r2230 1cffe9f

Audio 1

Codec ID                                 : A_AC3
Duration                                 : 1h 46mn
Bit rate mode                            : Constant
Bit rate                                 : 128 Kbps
Channel(s)                               : 2 channels
Channel positions                        : Front: L R
Sampling rate                            : 44.1 KHz
Bit depth                                : 16 bits
Compression mode                         : Lossy
Delay relative to video                  : 1s 350ms
Stream size                              : 97.1 MiB (13%)
Title                                    : K@rtik
Language                                 : Hindi
Default

Audio 2

Codec ID                                 : A_AC3
Duration                                 : 1h 46mn
Bit rate mode                            : Constant
Bit rate                                 : 128 Kbps
Channel(s)                               : 2 channels
Channel positions                        : Front: L R
Sampling rate                            : 48.0 KHz
Bit depth                                : 16 bits
Compression mode                         : Lossy
Stream size                              : 97.1 MiB (13%)
Title                                    : K@rtik
Language                                 : English

Screens: 
http://img687.imageshack.us/img687/5918/27393526.png 
http://img825.imageshack.us/img825/5093/19799447.png 
http://img152.imageshack.us/img152/6145/94706861.png 
http://img35.imageshack.us/img35/6553/85776168.png 
http://img834.imageshack.us/img834/7826/16343735.png 
http://img72.imageshack.us/img72/1038/81636682.png 
http://img28.imageshack.us/img28/3246/59621743.png 
http://img171.imageshack.us/img171/2936/84245249.png 
http://img515.imageshack.us/img515/3144/20054239.png 
http://img35.imageshack.us/img35/1782/59839489.png